<svg width="9" height="9" viewBox="0 0 9 9" fill="none" xmlns="http://www.w3.org/2000/svg">
<g clip-path="url(#clip0_1061_371)">
<path d="M7.5 0H1.5C1.10218 0 0.720644 0.158035 0.43934 0.43934C0.158035 0.720644 0 1.10218 0 1.5L0 6C0 6.39782 0.158035 6.77936 0.43934 7.06066C0.720644 7.34196 1.10218 7.5 1.5 7.5H2.5875L4.25663 8.91113C4.32434 8.96843 4.41017 8.99987 4.49887 8.99987C4.58758 8.99987 4.67341 8.96843 4.74113 8.91113L6.4125 7.5H7.5C7.89782 7.5 8.27936 7.34196 8.56066 7.06066C8.84196 6.77936 9 6.39782 9 6V1.5C9 1.10218 8.84196 0.720644 8.56066 0.43934C8.27936 0.158035 7.89782 0 7.5 0V0ZM8.25 6C8.25 6.19891 8.17098 6.38968 8.03033 6.53033C7.88968 6.67098 7.69891 6.75 7.5 6.75H6.4125C6.23523 6.75005 6.06372 6.8129 5.92838 6.92737L4.5 8.13375L3.07237 6.92737C2.93684 6.81273 2.76502 6.74988 2.5875 6.75H1.5C1.30109 6.75 1.11032 6.67098 0.96967 6.53033C0.829018 6.38968 0.75 6.19891 0.75 6V1.5C0.75 1.30109 0.829018 1.11032 0.96967 0.96967C1.11032 0.829018 1.30109 0.75 1.5 0.75H7.5C7.69891 0.75 7.88968 0.829018 8.03033 0.96967C8.17098 1.11032 8.25 1.30109 8.25 1.5V6Z" fill="#374957"/>
<path d="M2.625 2.62506H4.5C4.59946 2.62506 4.69484 2.58555 4.76516 2.51522C4.83549 2.4449 4.875 2.34952 4.875 2.25006C4.875 2.1506 4.83549 2.05522 4.76516 1.9849C4.69484 1.91457 4.59946 1.87506 4.5 1.87506H2.625C2.52554 1.87506 2.43016 1.91457 2.35984 1.9849C2.28951 2.05522 2.25 2.1506 2.25 2.25006C2.25 2.34952 2.28951 2.4449 2.35984 2.51522C2.43016 2.58555 2.52554 2.62506 2.625 2.62506Z" fill="#374957"/>
<path d="M6.375 3.375H2.625C2.52554 3.375 2.43016 3.41451 2.35984 3.48483C2.28951 3.55516 2.25 3.65054 2.25 3.75C2.25 3.84946 2.28951 3.94484 2.35984 4.01516C2.43016 4.08549 2.52554 4.125 2.625 4.125H6.375C6.47446 4.125 6.56984 4.08549 6.64017 4.01516C6.71049 3.94484 6.75 3.84946 6.75 3.75C6.75 3.65054 6.71049 3.55516 6.64017 3.48483C6.56984 3.41451 6.47446 3.375 6.375 3.375Z" fill="#374957"/>
<path d="M6.375 4.87494H2.625C2.52554 4.87494 2.43016 4.91445 2.35984 4.98477C2.28951 5.0551 2.25 5.15048 2.25 5.24994C2.25 5.3494 2.28951 5.44478 2.35984 5.51511C2.43016 5.58543 2.52554 5.62494 2.625 5.62494H6.375C6.47446 5.62494 6.56984 5.58543 6.64017 5.51511C6.71049 5.44478 6.75 5.3494 6.75 5.24994C6.75 5.15048 6.71049 5.0551 6.64017 4.98477C6.56984 4.91445 6.47446 4.87494 6.375 4.87494Z" fill="#374957"/>
</g>
<defs>
<clipPath id="clip0_1061_371">
<rect width="9" height="9" fill="white"/>
</clipPath>
</defs>
</svg>
