<svg width="10" height="10" viewBox="0 0 10 10" fill="none" xmlns="http://www.w3.org/2000/svg">
<g clip-path="url(#clip0_1585_1851)">
<path d="M9.52209 0.478314C9.23882 0.195479 8.85489 0.0366211 8.45459 0.0366211C8.05429 0.0366211 7.67036 0.195479 7.38709 0.478314L0.610423 7.25498C0.416361 7.44795 0.262491 7.67749 0.157714 7.93031C0.0529371 8.18314 -0.000665823 8.45423 6.24218e-06 8.7279V9.58332C6.24218e-06 9.69382 0.0439049 9.7998 0.122045 9.87794C0.200185 9.95608 0.306166 9.99998 0.416673 9.99998H1.27209C1.54574 10.0008 1.81683 9.94724 2.06965 9.84253C2.32248 9.73782 2.55203 9.58401 2.74501 9.38998L9.52209 2.6129C9.8048 2.32965 9.96357 1.9458 9.96357 1.54561C9.96357 1.14541 9.8048 0.761566 9.52209 0.478314ZM2.15584 8.80082C1.92084 9.03425 1.60332 9.16569 1.27209 9.16665H0.83334V8.7279C0.832918 8.56369 0.865071 8.40103 0.927938 8.24934C0.990806 8.09764 1.08314 7.95992 1.19959 7.84415L6.34251 2.70123L7.30084 3.65956L2.15584 8.80082ZM8.93251 2.02373L7.88834 3.06831L6.93001 2.11206L7.97459 1.06748C8.03751 1.00469 8.11219 0.954913 8.19435 0.920985C8.27652 0.887056 8.36456 0.869643 8.45345 0.86974C8.54234 0.869837 8.63035 0.887441 8.71244 0.921548C8.79453 0.955656 8.86909 1.0056 8.93188 1.06852C8.99467 1.13145 9.04445 1.20612 9.07838 1.28829C9.11231 1.37045 9.12972 1.45849 9.12962 1.54738C9.12953 1.63628 9.11192 1.72428 9.07781 1.80637C9.04371 1.88846 8.99376 1.96303 8.93084 2.02581L8.93251 2.02373Z" fill="#939393"/>
</g>
<defs>
<clipPath id="clip0_1585_1851">
<rect width="10" height="10" fill="white"/>
</clipPath>
</defs>
</svg>
