<svg width="9" height="9" viewBox="0 0 9 9" fill="none" xmlns="http://www.w3.org/2000/svg">
<g clip-path="url(#clip0_1585_1872)">
<path d="M3.75 2.25H8.625C8.72446 2.25 8.81984 2.21049 8.89017 2.14016C8.96049 2.06984 9 1.97446 9 1.875C9 1.77554 8.96049 1.68016 8.89017 1.60983C8.81984 1.53951 8.72446 1.5 8.625 1.5H3.75C3.65054 1.5 3.55516 1.53951 3.48484 1.60983C3.41451 1.68016 3.375 1.77554 3.375 1.875C3.375 1.97446 3.41451 2.06984 3.48484 2.14016C3.55516 2.21049 3.65054 2.25 3.75 2.25Z" fill="#949494"/>
<path d="M8.625 4.125H3.75C3.65054 4.125 3.55516 4.16451 3.48484 4.23484C3.41451 4.30516 3.375 4.40055 3.375 4.5C3.375 4.59946 3.41451 4.69484 3.48484 4.76517C3.55516 4.8355 3.65054 4.875 3.75 4.875H8.625C8.72446 4.875 8.81984 4.8355 8.89017 4.76517C8.96049 4.69484 9 4.59946 9 4.5C9 4.40055 8.96049 4.30516 8.89017 4.23484C8.81984 4.16451 8.72446 4.125 8.625 4.125Z" fill="#949494"/>
<path d="M8.625 6.75H3.75C3.65054 6.75 3.55516 6.78951 3.48484 6.85984C3.41451 6.93016 3.375 7.02555 3.375 7.125C3.375 7.22446 3.41451 7.31984 3.48484 7.39017C3.55516 7.4605 3.65054 7.5 3.75 7.5H8.625C8.72446 7.5 8.81984 7.4605 8.89017 7.39017C8.96049 7.31984 9 7.22446 9 7.125C9 7.02555 8.96049 6.93016 8.89017 6.85984C8.81984 6.78951 8.72446 6.75 8.625 6.75Z" fill="#949494"/>
<path d="M2.28259 2.24994C2.31969 2.24994 2.35596 2.23892 2.3868 2.21829C2.41764 2.19767 2.44166 2.16836 2.45583 2.13407C2.47001 2.09978 2.47369 2.06206 2.46641 2.02568C2.45914 1.9893 2.44124 1.95589 2.41497 1.92969L1.49997 1.01507C1.42965 0.944767 1.33428 0.905273 1.23484 0.905273C1.13541 0.905273 1.04004 0.944767 0.969719 1.01507L0.0550943 1.92969C0.028827 1.95589 0.0109231 1.9893 0.00364864 2.02568C-0.00362579 2.06206 5.62844e-05 2.09978 0.0142288 2.13407C0.0284014 2.16836 0.0524273 2.19767 0.0832656 2.21829C0.114104 2.23892 0.150369 2.24994 0.187469 2.24994H0.860219V6.74994H0.187469C0.150337 6.74988 0.11402 6.76084 0.0831243 6.78144C0.0522284 6.80203 0.0281443 6.83134 0.0139252 6.86564C-0.000293846 6.89995 -0.00400751 6.9377 0.00325503 6.97412C0.0105176 7.01053 0.0284293 7.04397 0.0547193 7.07019L0.969719 7.98482C1.04004 8.05512 1.13541 8.09461 1.23484 8.09461C1.33428 8.09461 1.42965 8.05512 1.49997 7.98482L2.41497 7.07019C2.44124 7.04399 2.45914 7.01059 2.46641 6.97421C2.47369 6.93783 2.47001 6.90011 2.45583 6.86582C2.44166 6.83153 2.41764 6.80222 2.3868 6.78159C2.35596 6.76097 2.31969 6.74995 2.28259 6.74994H1.61022V2.24994H2.28259Z" fill="#949494"/>
</g>
<defs>
<clipPath id="clip0_1585_1872">
<rect width="9" height="9" fill="white"/>
</clipPath>
</defs>
</svg>
